<svg width="20" height="20" viewBox="0 0 20 20" fill="none" xmlns="http://www.w3.org/2000/svg">
<path d="M18.3337 7.10008V3.31675C18.3337 2.14175 17.8003 1.66675 16.4753 1.66675H13.1087C11.7837 1.66675 11.2503 2.14175 11.2503 3.31675V7.09175C11.2503 8.27508 11.7837 8.74175 13.1087 8.74175H16.4753C17.8003 8.75008 18.3337 8.27508 18.3337 7.10008ZM18.3337 16.4751V13.1084C18.3337 11.7834 17.8003 11.2501 16.4753 11.2501H13.1087C11.7837 11.2501 11.2503 11.7834 11.2503 13.1084V16.4751C11.2503 17.8001 11.7837 18.3334 13.1087 18.3334H16.4753C17.8003 18.3334 18.3337 17.8001 18.3337 16.4751ZM8.75033 7.10008V3.31675C8.75033 2.14175 8.21699 1.66675 6.89199 1.66675H3.52533C2.20033 1.66675 1.66699 2.14175 1.66699 3.31675V7.09175C1.66699 8.27508 2.20033 8.74175 3.52533 8.74175H6.89199C8.21699 8.75008 8.75033 8.27508 8.75033 7.10008ZM8.75033 16.4751V13.1084C8.75033 11.7834 8.21699 11.2501 6.89199 11.2501H3.52533C2.20033 11.2501 1.66699 11.7834 1.66699 13.1084V16.4751C1.66699 17.8001 2.20033 18.3334 3.52533 18.3334H6.89199C8.21699 18.3334 8.75033 17.8001 8.75033 16.4751Z" stroke="white" stroke-linecap="round" stroke-linejoin="round"/>
</svg>
