<svg width="14" height="18" viewBox="0 0 14 18" fill="none" xmlns="http://www.w3.org/2000/svg">
<path d="M7.13327 8.05828C7.04993 8.04995 6.94993 8.04995 6.85827 8.05828C5.90177 8.02581 4.99547 7.62231 4.33129 6.93325C3.66712 6.24419 3.29722 5.32366 3.29993 4.36662C3.29993 2.32495 4.94993 0.666617 6.99993 0.666617C7.48528 0.657862 7.96759 0.744789 8.41934 0.922433C8.87109 1.10008 9.28343 1.36496 9.63281 1.70196C9.98219 2.03896 10.2618 2.44148 10.4556 2.88652C10.6494 3.33157 10.7537 3.81044 10.7624 4.29578C10.7712 4.78113 10.6843 5.26344 10.5066 5.71519C10.329 6.16694 10.0641 6.57928 9.72709 6.92866C9.39009 7.27804 8.98758 7.55762 8.54253 7.75144C8.09748 7.94526 7.61861 8.04953 7.13327 8.05828ZM2.9666 11.1333C0.949935 12.4833 0.949935 14.6833 2.9666 16.025C5.25827 17.5583 9.0166 17.5583 11.3083 16.025C13.3249 14.675 13.3249 12.475 11.3083 11.1333C9.02494 9.60828 5.2666 9.60828 2.9666 11.1333Z" stroke="white" stroke-linecap="round" stroke-linejoin="round"/>
</svg>
