<svg width="18" height="18" viewBox="0 0 18 18" fill="none" xmlns="http://www.w3.org/2000/svg">
<path d="M0.666992 9.73336V8.26669C0.666992 7.40003 1.37533 6.68336 2.25033 6.68336C3.75866 6.68336 4.37533 5.6167 3.61699 4.30836C3.18366 3.55836 3.44199 2.58336 4.20033 2.15003L5.64199 1.32503C6.30033 0.933362 7.15033 1.1667 7.54199 1.82503L7.63366 1.98336C8.38366 3.2917 9.61699 3.2917 10.3753 1.98336L10.467 1.82503C10.8587 1.1667 11.7087 0.933362 12.367 1.32503L13.8087 2.15003C14.567 2.58336 14.8253 3.55836 14.392 4.30836C13.6337 5.6167 14.2503 6.68336 15.7587 6.68336C16.6253 6.68336 17.342 7.39169 17.342 8.26669V9.73336C17.342 10.6 16.6337 11.3167 15.7587 11.3167C14.2503 11.3167 13.6337 12.3834 14.392 13.6917C14.8253 14.45 14.567 15.4167 13.8087 15.85L12.367 16.675C11.7087 17.0667 10.8587 16.8334 10.467 16.175L10.3753 16.0167C9.62533 14.7084 8.39199 14.7084 7.63366 16.0167L7.54199 16.175C7.15033 16.8334 6.30033 17.0667 5.64199 16.675L4.20033 15.85C3.83708 15.6409 3.57164 15.2961 3.46228 14.8915C3.35292 14.4869 3.40856 14.0554 3.61699 13.6917C4.37533 12.3834 3.75866 11.3167 2.25033 11.3167C1.37533 11.3167 0.666992 10.6 0.666992 9.73336Z" stroke="white" stroke-miterlimit="10" stroke-linecap="round" stroke-linejoin="round"/>
</svg>
