<?xml version="1.0" standalone="no"?>
<!DOCTYPE svg PUBLIC "-//W3C//DTD SVG 20010904//EN"
 "http://www.w3.org/TR/2001/REC-SVG-20010904/DTD/svg10.dtd">
<svg version="1.0" xmlns="http://www.w3.org/2000/svg"
 width="3500.000000pt" height="3500.000000pt" viewBox="0 0 3500.000000 3500.000000"
 preserveAspectRatio="xMidYMid meet">

<g transform="translate(0.000000,3500.000000) scale(0.100000,-0.100000)"
fill="#000000" stroke="none">
<path d="M0 17500 l0 -17500 4885 0 4885 0 -4 22 c-3 13 -8 61 -11 108 -4 47
-8 101 -11 120 -4 40 -21 407 -30 685 -14 421 46 1529 101 1855 8 47 17 119
20 160 10 118 100 680 150 933 13 70 50 229 80 355 71 290 79 320 110 422 44
143 53 178 89 365 19 99 46 227 60 285 22 94 39 159 121 460 28 104 112 355
131 392 8 14 21 48 30 75 14 43 45 118 136 328 85 196 335 674 446 855 52 84
221 338 277 415 19 28 43 61 53 75 45 67 244 324 262 340 4 3 74 84 157 180
222 258 676 703 953 934 95 79 140 120 247 219 39 37 76 67 81 67 25 0 23
-190 -8 -805 -33 -666 -20 -949 60 -1340 33 -159 84 -340 131 -465 31 -83 36
-96 74 -190 29 -70 136 -276 190 -365 61 -101 147 -223 244 -345 85 -106 337
-366 407 -420 25 -19 51 -40 58 -45 33 -30 191 -147 256 -190 41 -27 77 -51
80 -55 23 -24 385 -203 500 -246 87 -33 129 -47 275 -89 317 -92 916 -167
1566 -196 224 -10 281 -15 297 -28 11 -9 60 -81 107 -161 152 -253 318 -490
454 -649 77 -89 299 -312 386 -387 555 -482 1174 -756 1910 -845 149 -19 828
-19 980 -1 582 69 1298 272 1910 540 159 70 639 320 790 412 346 210 712 461
960 659 437 349 746 639 1115 1046 25 28 93 100 151 162 204 213 498 572 701
853 18 25 55 77 83 115 27 39 77 111 109 160 33 50 85 128 116 175 84 126 282
461 378 640 64 119 212 412 235 465 91 214 142 337 190 460 52 132 68 179 118
328 11 34 29 85 38 112 18 50 54 165 90 285 11 36 27 97 36 135 9 39 23 93 31
120 15 54 79 322 113 475 11 52 27 138 35 190 8 52 24 149 35 215 12 66 21
139 21 162 0 23 4 64 10 90 29 143 42 335 47 698 5 424 -2 686 -20 682 -7 -1
-15 16 -18 38 l-6 40 -2 -42 c-1 -46 -21 -105 -28 -85 -7 19 -22 14 -16 -7 3
-11 -3 -24 -14 -32 -14 -11 -18 -25 -16 -59 2 -48 -13 -105 -34 -131 -7 -8
-13 -25 -13 -37 0 -12 -4 -22 -9 -22 -14 0 -25 40 -22 74 2 16 -8 62 -21 102
-17 55 -28 74 -40 74 -10 0 -18 -7 -18 -15 0 -8 -5 -15 -10 -15 -6 0 -9 6 -8
12 2 7 -7 14 -20 16 -17 3 -23 10 -22 25 5 53 0 88 -11 81 -6 -3 -14 -2 -18 3
-3 5 -27 26 -53 47 -39 31 -48 44 -48 70 0 18 5 37 12 44 9 9 9 12 0 12 -8 0
-12 11 -10 28 2 17 -1 26 -9 24 -9 -1 -13 15 -15 55 -2 83 -3 88 -16 86 -15
-4 -45 54 -38 73 3 8 15 14 26 14 11 0 20 7 20 15 0 8 -9 15 -21 15 -11 0 -17
4 -14 10 3 5 -4 20 -15 32 -18 19 -21 33 -18 81 3 52 1 57 -18 57 -28 0 -41
31 -61 146 -11 60 -21 94 -29 94 -7 0 -16 19 -20 45 -3 25 -9 45 -13 45 -4 0
-7 10 -8 22 -1 11 -7 24 -14 28 -8 6 -8 9 2 13 10 4 9 6 -3 6 -13 1 -18 10
-19 34 -2 38 -3 47 -11 67 -4 8 -9 33 -12 54 -3 22 -10 43 -17 46 -8 6 -8 22
2 65 10 44 10 61 1 76 -7 10 -12 27 -12 36 0 10 -7 27 -15 37 -8 11 -15 28
-15 38 0 10 -7 18 -15 18 -9 0 -15 9 -15 25 0 14 -4 25 -10 25 -5 0 -10 14
-10 30 0 17 -5 30 -11 30 -8 0 -8 4 -1 13 7 8 7 18 2 27 -5 9 -5 19 2 27 5 7
8 20 4 28 -7 19 -1 19 29 -1 31 -20 32 -30 4 -37 -12 -3 -18 -10 -15 -16 8
-12 49 -10 58 4 5 6 8 6 8 -2 0 -7 7 -13 14 -13 23 0 120 -67 187 -130 66 -61
70 -63 138 -66 143 -7 406 -56 661 -124 63 -17 149 -40 190 -50 41 -11 86 -24
100 -29 14 -5 86 -29 160 -52 149 -46 483 -157 515 -170 11 -5 90 -34 175 -65
371 -134 883 -341 1188 -480 29 -13 55 -24 57 -24 2 0 34 -13 70 -30 36 -16
67 -30 69 -30 7 0 238 -110 471 -225 346 -170 441 -217 545 -272 52 -28 158
-83 234 -122 77 -39 145 -76 150 -80 6 -5 58 -34 116 -64 58 -31 135 -73 172
-94 214 -120 296 -168 323 -188 17 -12 48 -31 70 -42 22 -11 87 -49 145 -84
58 -36 112 -68 120 -71 8 -3 74 -42 145 -86 72 -44 165 -102 208 -129 71 -43
267 -170 408 -264 30 -20 128 -86 219 -148 262 -178 435 -291 445 -291 3 0 5
5560 5 12355 l0 12355 -17500 0 -17500 0 0 -17500z m20000 15585 c195 -14 396
-30 445 -35 50 -6 176 -19 280 -30 295 -32 739 -101 1045 -164 253 -52 612
-144 1060 -270 350 -98 1031 -359 1545 -591 356 -161 860 -425 1090 -570 28
-17 79 -49 115 -70 110 -66 437 -283 593 -394 82 -58 159 -113 170 -121 49
-33 314 -239 368 -284 19 -17 55 -47 79 -66 163 -131 471 -412 631 -576 494
-508 910 -1034 1210 -1534 188 -311 267 -456 420 -770 61 -124 119 -243 129
-265 24 -52 157 -392 204 -520 20 -55 43 -116 50 -135 54 -142 156 -526 210
-790 89 -438 110 -639 110 -1025 0 -349 -22 -583 -75 -820 -12 -49 -25 -110
-30 -135 -5 -24 -14 -49 -19 -54 -6 -6 -10 -18 -10 -28 0 -25 -78 -258 -96
-285 -8 -12 -14 -27 -14 -32 0 -20 -145 -324 -174 -366 -12 -16 -32 -50 -45
-75 -22 -39 -76 -122 -102 -155 -5 -5 -35 -47 -68 -91 -79 -109 -174 -224
-193 -232 -3 -2 -20 -16 -36 -32 -17 -16 -48 -40 -69 -53 -21 -13 -45 -32 -52
-41 -13 -15 -10 -20 20 -46 19 -16 37 -29 41 -30 11 0 239 -202 283 -251 291
-319 465 -753 506 -1263 13 -157 6 -553 -11 -681 -60 -441 -269 -1148 -485
-1640 -209 -477 -420 -873 -685 -1285 -48 -74 -108 -174 -134 -222 -52 -97
-62 -107 -71 -79 -3 11 -12 21 -19 24 -7 3 -34 43 -59 90 -25 47 -78 131 -117
188 -39 57 -78 115 -88 129 -9 14 -55 76 -102 138 -47 63 -100 136 -118 163
-18 27 -36 49 -41 49 -4 0 -29 -29 -55 -64 -71 -97 -119 -142 -193 -179 -136
-70 -348 -81 -464 -23 -131 65 -262 241 -327 441 -16 48 -32 84 -35 79 -27
-44 -72 -492 -62 -621 34 -453 122 -702 316 -895 50 -50 91 -78 162 -113 l95
-47 129 0 c133 1 217 11 313 37 93 25 86 42 78 -196 -4 -116 -14 -302 -23
-412 -9 -111 -22 -285 -30 -387 -8 -102 -21 -261 -30 -355 -8 -93 -20 -222
-25 -285 -5 -63 -12 -131 -15 -150 -10 -71 -65 -626 -65 -662 0 -33 5 -41 41
-63 31 -20 38 -29 30 -39 -6 -7 -8 -16 -4 -19 3 -4 1 -7 -5 -7 -7 0 -12 -13
-12 -30 0 -19 5 -30 14 -30 7 0 16 -9 19 -21 4 -15 2 -19 -8 -15 -8 3 -17 1
-20 -5 -4 -5 -10 -7 -15 -4 -8 5 -25 109 -22 138 1 10 -2 16 -6 13 -5 -3 -12
-108 -15 -233 -4 -125 -11 -313 -17 -418 -5 -104 -17 -345 -26 -535 -17 -374
-46 -799 -69 -1005 -22 -195 -53 -396 -64 -409 -6 -7 -15 -32 -21 -56 -24 -98
-39 -160 -65 -270 -15 -63 -42 -173 -62 -245 -19 -71 -45 -170 -58 -220 -40
-152 -64 -237 -85 -300 -11 -33 -34 -105 -51 -160 -17 -55 -41 -129 -54 -165
-39 -114 -154 -480 -210 -670 -73 -247 -124 -397 -170 -500 -48 -107 -206
-427 -242 -490 -11 -19 -44 -78 -73 -130 -71 -126 -109 -182 -121 -175 -33 21
27 253 166 645 117 327 397 1370 472 1754 14 72 29 150 34 174 25 125 61 406
67 542 10 180 6 428 -8 550 -21 191 -90 573 -125 695 -94 322 -111 376 -193
600 -79 217 -105 281 -166 419 -36 82 -66 154 -66 160 0 6 -7 22 -16 34 -16
23 -17 21 -91 -105 -83 -141 -184 -334 -240 -458 -20 -44 -49 -108 -64 -143
-16 -34 -29 -64 -29 -67 0 -2 -15 -36 -34 -77 -65 -141 -86 -189 -86 -193 0
-2 -15 -36 -34 -77 -75 -165 -266 -599 -266 -605 0 -4 -13 -34 -29 -67 -16
-34 -43 -92 -61 -129 -17 -38 -70 -148 -117 -245 -47 -97 -99 -206 -115 -242
-170 -371 -441 -859 -638 -1150 -55 -82 -281 -385 -441 -590 -131 -169 -407
-467 -715 -771 -197 -194 -286 -277 -550 -515 -123 -110 -280 -243 -378 -319
-50 -39 -108 -86 -130 -106 -40 -35 -295 -232 -388 -299 -26 -19 -102 -75
-169 -125 -134 -99 -150 -111 -235 -172 -33 -24 -106 -77 -164 -118 -58 -42
-143 -101 -189 -133 -46 -31 -96 -66 -111 -77 -63 -47 -357 -238 -500 -327
-316 -195 -389 -238 -565 -330 -256 -134 -335 -169 -335 -151 0 11 86 73 100
73 5 0 124 114 263 253 285 283 383 403 554 677 97 155 95 151 164 290 122
245 190 446 278 815 47 197 43 203 -44 88 -216 -286 -461 -550 -715 -770 -58
-50 -142 -124 -188 -164 -183 -163 -387 -325 -552 -437 -41 -29 -95 -66 -120
-83 -71 -50 -366 -219 -455 -259 -481 -223 -903 -325 -1570 -379 -164 -14
-590 -14 -783 -1 -346 24 -712 79 -969 145 -163 43 -351 101 -418 130 -16 8
-73 30 -125 51 -129 50 -404 192 -498 255 -488 331 -756 716 -891 1279 -48
203 -64 371 -58 620 8 317 32 414 147 583 72 107 89 108 137 13 60 -120 309
-557 382 -671 51 -81 161 -234 204 -285 96 -114 366 -375 482 -466 41 -32 235
-164 242 -164 2 0 22 -12 46 -27 93 -61 345 -187 492 -248 478 -198 1083 -281
1645 -224 530 53 1033 250 1630 637 360 234 730 559 1014 891 201 235 296 361
296 391 0 6 -74 84 -164 173 -281 278 -383 406 -432 543 -36 98 -32 133 26
243 28 51 50 96 50 99 0 2 -81 -74 -179 -171 -234 -229 -339 -312 -576 -457
-138 -84 -359 -185 -510 -232 -68 -21 -182 -50 -206 -52 -15 -1 -40 -8 -55
-14 -54 -23 -259 -63 -414 -82 -85 -11 -211 -26 -280 -35 -213 -26 -562 -38
-945 -32 -307 5 -628 26 -654 41 -3 3 -60 12 -126 21 -263 36 -543 112 -723
196 -37 17 -85 38 -107 47 -72 28 -288 160 -370 225 -104 84 -177 163 -246
267 -88 132 -118 199 -137 310 -12 70 -12 110 -1 110 5 0 9 -8 9 -17 0 -10 13
-46 30 -81 16 -35 32 -75 35 -89 2 -14 14 -37 27 -51 13 -14 29 -32 36 -41 77
-96 116 -141 144 -168 56 -55 151 -134 189 -159 21 -12 39 -27 40 -31 18 -40
371 -243 529 -303 30 -11 64 -24 75 -29 36 -16 298 -82 505 -127 121 -26 404
-52 700 -65 237 -10 313 -9 545 5 402 25 617 48 855 92 46 9 96 18 111 19 15
2 46 13 68 25 23 11 41 18 41 15 0 -3 11 2 25 11 13 8 29 13 34 9 6 -3 40 8
75 25 35 16 78 33 95 36 17 4 33 14 36 25 4 11 10 19 14 19 11 0 78 60 68 60
-11 0 101 90 112 90 6 0 14 6 18 13 4 7 29 27 54 45 41 27 172 157 325 320 27
29 83 88 124 130 251 261 511 572 758 908 184 251 352 492 352 507 0 5 14 30
32 55 76 112 76 112 60 112 -4 0 -28 -30 -52 -68 -97 -150 -367 -496 -538
-692 -173 -197 -450 -465 -597 -576 -22 -17 -80 -62 -130 -101 -131 -103 -409
-288 -572 -382 -78 -44 -144 -81 -147 -81 -3 0 -41 -17 -85 -39 -201 -98 -546
-212 -801 -264 -477 -98 -1187 -103 -1638 -11 -377 76 -717 218 -937 389 -92
72 -225 208 -307 316 -136 178 -252 483 -279 732 -17 152 -6 503 20 651 71
402 212 743 410 988 115 143 268 273 361 307 95 35 220 53 220 32 0 -10 -57
-61 -69 -61 -14 0 -117 -104 -148 -150 -130 -193 -187 -407 -187 -700 2 -500
206 -952 549 -1217 95 -73 305 -192 380 -216 11 -3 61 -20 110 -37 241 -83
474 -120 810 -127 370 -8 593 19 906 112 326 96 551 196 989 443 396 223 846
570 1225 947 237 235 394 421 696 830 131 177 393 564 535 788 27 43 91 142
142 220 105 158 170 264 197 317 10 19 54 96 98 170 101 169 408 770 561 1100
42 91 81 174 86 185 6 11 30 72 54 135 92 239 184 439 187 405 5 -76 -4 -1777
-11 -2140 -14 -691 -40 -1420 -60 -1675 -5 -69 -17 -224 -25 -345 -48 -693
-57 -814 -70 -960 -17 -191 -51 -504 -65 -595 -5 -36 -23 -150 -40 -253 -41
-248 -39 -263 22 -160 54 90 132 247 208 414 28 63 60 132 70 154 67 143 121
277 282 690 117 303 236 684 323 1035 25 102 52 210 60 240 8 30 30 127 49
215 138 635 238 1277 311 2000 14 138 27 266 30 285 11 73 55 651 95 1250 40
595 40 1597 0 2180 -38 554 -89 905 -186 1293 -132 526 -450 1091 -908 1614
-199 227 -569 568 -743 686 -38 25 -106 72 -153 104 -95 66 -254 163 -266 163
-4 0 -15 6 -23 14 -21 19 -227 121 -371 184 -268 118 -636 233 -965 302 -136
28 -379 55 -398 43 -16 -10 3 -76 46 -157 46 -88 153 -208 265 -299 87 -71
213 -150 382 -238 154 -81 304 -167 340 -196 8 -7 77 -54 152 -105 284 -192
478 -362 655 -573 161 -192 353 -509 463 -765 50 -117 71 -160 79 -160 4 0 13
28 19 63 26 151 42 167 73 75 50 -150 54 -439 7 -635 -7 -31 -17 -53 -25 -53
-7 0 -86 36 -176 79 -89 43 -211 102 -272 131 -125 59 -455 195 -500 206 -17
4 -34 10 -40 14 -13 10 -418 140 -555 178 -629 178 -1007 250 -1650 317 -85 8
-198 20 -250 26 -52 5 -156 14 -230 20 -173 13 -495 36 -627 45 -104 7 -137
20 -110 43 13 11 110 33 372 85 325 65 448 103 625 189 243 118 396 223 526
358 52 56 144 178 144 193 0 3 12 31 26 61 52 115 68 198 67 355 0 102 -5 164
-17 210 -76 293 -379 576 -756 704 -166 56 -279 75 -519 86 -231 11 -261 15
-261 35 0 16 38 72 104 155 85 106 124 163 156 231 26 56 39 109 26 109 -7 0
-118 -69 -157 -98 -117 -86 -554 -449 -616 -511 -147 -149 -119 -154 532 -84
205 21 478 21 570 0 124 -30 171 -45 216 -67 184 -94 330 -264 359 -419 23
-121 4 -252 -43 -307 -22 -25 -24 -26 -57 -11 -19 8 -47 26 -61 39 -80 71
-187 148 -205 148 -4 0 -15 6 -23 13 -16 13 -111 53 -181 77 -133 44 -329 76
-562 89 -90 6 -384 12 -655 15 -501 6 -592 11 -813 47 -417 68 -781 238 -1036
485 -84 82 -194 207 -194 221 0 5 -9 18 -19 27 -11 10 -29 37 -41 59 -11 23
-27 53 -35 67 -8 14 -19 43 -25 65 -16 66 -23 70 -87 68 -32 -2 -59 -7 -61
-13 -2 -5 -20 -12 -40 -16 -20 -4 -39 -10 -42 -14 -11 -14 -103 -60 -121 -60
-10 0 -34 -13 -52 -30 -19 -16 -41 -30 -50 -30 -8 0 -20 -7 -27 -15 -7 -8 -17
-15 -22 -15 -24 0 -147 -145 -172 -203 -8 -20 -19 -37 -24 -37 -11 0 -93 -106
-109 -140 -33 -75 -43 -99 -43 -109 0 -6 -8 -15 -19 -20 -25 -14 -58 -109 -73
-206 -15 -105 -14 -348 1 -454 21 -140 110 -393 169 -479 83 -120 86 -130 37
-118 -43 11 -256 229 -318 326 -147 231 -207 382 -207 527 0 300 68 535 232
803 109 178 185 277 342 441 125 131 264 241 486 384 94 61 208 138 252 172
45 35 120 83 167 107 47 24 129 71 181 105 52 33 129 79 170 102 41 23 145 90
230 147 214 145 212 144 242 171 27 24 27 25 8 38 -30 21 -46 60 -64 148 -23
112 -41 166 -93 275 -129 269 -283 432 -518 549 -186 93 -307 109 -519 71
-180 -33 -491 -125 -641 -190 -27 -12 -81 -33 -120 -47 -38 -14 -99 -39 -135
-55 -36 -17 -108 -47 -160 -68 -52 -21 -153 -64 -225 -95 -71 -31 -170 -73
-220 -92 -49 -20 -182 -79 -295 -133 -283 -133 -434 -221 -673 -393 -67 -48
-180 -129 -252 -179 -204 -144 -405 -321 -405 -357 0 -17 34 -13 98 10 152 56
371 94 807 140 379 39 752 50 1010 29 149 -13 185 -23 185 -55 0 -34 -77 -94
-142 -110 -84 -20 -446 -79 -553 -90 -490 -47 -843 -116 -1140 -222 -128 -46
-359 -144 -455 -195 -77 -40 -170 -112 -159 -122 3 -4 46 7 95 24 527 180
1207 225 1343 89 17 -17 31 -36 31 -42 0 -32 -62 -111 -125 -162 -70 -56 -119
-85 -310 -185 -155 -81 -314 -170 -375 -208 -227 -145 -462 -309 -615 -430
-170 -136 -470 -451 -581 -612 -102 -148 -219 -355 -292 -517 -142 -314 -225
-687 -259 -1158 -11 -159 -8 -657 6 -820 39 -455 218 -1076 516 -1785 31 -74
78 -187 105 -250 119 -289 225 -525 332 -750 33 -69 74 -154 90 -190 55 -120
151 -314 191 -389 38 -69 41 -72 55 -55 12 16 13 78 9 384 -6 484 -30 665
-153 1166 -48 199 -50 214 -30 214 21 0 151 -142 200 -219 83 -129 216 -417
310 -671 20 -52 63 -162 97 -245 33 -82 83 -204 109 -270 81 -201 165 -405
205 -500 20 -49 53 -128 72 -175 19 -47 41 -98 48 -115 7 -16 41 -102 75 -190
104 -267 170 -435 210 -535 21 -53 54 -138 74 -190 31 -87 112 -288 148 -371
37 -83 156 -364 199 -469 61 -151 155 -369 214 -500 46 -103 58 -129 115 -260
32 -71 106 -245 176 -408 24 -56 75 -167 113 -245 37 -78 81 -170 96 -204 15
-35 34 -63 41 -63 26 0 105 128 145 234 19 51 21 71 15 146 -10 132 -68 353
-155 590 -18 47 -43 114 -56 150 -13 36 -40 108 -60 160 -20 52 -42 113 -50
135 -13 40 -177 452 -195 490 -18 39 -133 332 -192 490 -33 88 -92 243 -133
345 -67 170 -147 377 -182 475 -20 55 -101 246 -189 446 -40 92 -96 224 -125
295 -28 71 -57 143 -64 159 -22 51 -75 228 -75 252 0 43 36 25 113 -54 96
-101 242 -266 286 -323 19 -25 65 -79 101 -120 70 -79 146 -173 270 -336 77
-101 91 -121 175 -254 26 -41 58 -91 70 -110 65 -100 311 -585 353 -695 11
-27 39 -99 64 -160 60 -146 141 -394 174 -528 126 -531 107 -1150 -45 -1456
-16 -31 -51 -103 -80 -161 -28 -58 -58 -116 -66 -130 -19 -34 -95 -188 -95
-195 0 -2 -47 -106 -105 -230 -206 -444 -346 -830 -435 -1205 -11 -47 -27
-110 -35 -140 -8 -30 -24 -100 -36 -155 -11 -55 -24 -103 -27 -107 -4 -4 -71
100 -150 230 -156 260 -277 454 -413 664 -119 183 -266 427 -379 628 -52 91
-120 212 -152 268 -32 57 -58 106 -58 108 0 2 -10 21 -23 42 -13 20 -57 100
-97 177 -40 77 -106 199 -145 270 -125 226 -475 924 -569 1137 -13 29 -51 111
-85 182 -33 70 -61 130 -61 132 0 2 -16 38 -35 80 -19 41 -35 78 -35 80 0 3
-11 29 -24 57 -98 208 -350 798 -421 987 -17 47 -71 186 -119 310 -196 501
-323 884 -550 1650 -40 136 -133 509 -177 710 -22 102 -46 212 -54 245 -8 33
-24 114 -35 180 -11 66 -23 127 -25 135 -18 62 -67 425 -96 712 -27 257 -38
965 -20 1208 32 415 129 868 267 1235 55 147 176 429 233 543 216 430 607 904
1008 1221 70 56 136 114 145 129 23 35 33 86 63 332 75 599 199 1047 374 1355
103 179 254 338 421 441 210 130 394 206 635 261 266 60 503 78 1065 78 443 0
476 -2 695 -28 127 -14 271 -36 320 -47 102 -23 273 -36 329 -26 48 9 119 81
155 156 23 49 26 66 26 165 -2 243 -100 487 -269 663 -148 155 -299 229 -539
261 -117 16 -634 14 -822 -4 -345 -32 -508 -57 -710 -106 -120 -29 -175 -36
-175 -21 0 22 156 146 330 262 69 45 143 95 165 110 22 15 119 73 215 130 96
57 182 109 190 116 16 13 158 93 410 232 537 297 1262 498 2105 587 334 35
892 45 1297 25 201 -11 476 -42 698 -80 236 -40 362 -50 375 -29 9 13 -18 43
-75 82 -25 17 -79 54 -120 82 -86 58 -139 105 -120 105 7 0 21 -6 29 -14 26
-22 120 -86 127 -86 4 0 43 -23 87 -51 93 -60 247 -135 368 -180 507 -188 808
-251 1204 -251 383 0 670 73 908 232 319 214 294 467 -75 732 -48 35 -145 100
-215 146 -70 45 -156 106 -189 135 -62 53 -164 164 -164 178 0 5 21 -3 48 -16
99 -50 180 -75 411 -130 79 -19 198 -48 265 -64 196 -49 295 -69 400 -82 66
-9 106 -19 117 -30 11 -11 18 -43 23 -115 24 -331 106 -605 246 -819 101 -154
347 -377 571 -519 320 -202 989 -437 1384 -486 50 -6 117 -16 150 -21 33 -5
147 -15 252 -21 294 -18 502 4 742 76 94 29 133 32 149 14 19 -23 42 -166 42
-257 0 -133 -17 -230 -66 -386 -110 -344 -126 -431 -101 -551 27 -128 122
-286 204 -342 44 -30 43 -36 -31 -204 -58 -134 -94 -243 -122 -368 -22 -96
-25 -342 -5 -420 49 -199 123 -368 270 -611 214 -357 342 -663 402 -961 39
-197 52 -423 69 -1218 6 -261 17 -542 24 -625 45 -482 159 -872 317 -1082 46
-61 85 -85 122 -75 91 25 195 157 269 341 76 189 113 316 174 596 87 399 149
586 276 825 105 199 252 392 385 507 222 191 392 269 648 300 156 19 310 7
438 -34 83 -26 107 -25 107 4 0 10 10 38 21 63 12 25 22 54 23 65 6 46 29 93
44 88 11 -5 13 0 7 25 -5 27 -4 32 12 33 10 0 13 3 6 6 -18 7 -16 23 9 63 12
19 23 46 25 59 2 13 11 37 19 52 8 16 13 32 12 36 -1 4 5 24 14 43 8 19 23 58
33 85 9 28 20 59 24 70 14 35 32 109 32 130 0 11 6 30 14 42 8 12 15 32 15 44
0 12 11 67 24 123 22 88 35 179 72 496 4 36 8 153 8 260 1 107 5 203 10 213 6
12 4 17 -7 17 -10 0 -15 12 -16 43 -3 94 -48 463 -62 505 -12 35 -4 87 10 77
5 -3 12 -23 16 -46 4 -23 15 -45 26 -52 10 -6 19 -19 19 -28 0 -9 6 -19 14
-22 14 -6 26 -47 30 -107 2 -19 8 -48 15 -65 7 -16 10 -40 8 -52 -2 -13 0 -23
5 -23 5 0 7 -13 3 -30 -5 -22 -3 -32 9 -36 9 -3 16 -14 17 -23 0 -13 2 -12 8
3 5 13 10 16 14 9 4 -6 1 -18 -7 -25 -11 -12 -10 -15 10 -25 13 -6 25 -8 28
-5 4 3 16 6 29 8 29 3 57 -13 41 -23 -6 -5 -14 -16 -17 -27 -6 -15 -10 -16
-22 -6 -13 11 -15 5 -15 -39 0 -52 9 -61 40 -41 16 10 17 14 19 73 1 47 21 49
21 2 0 -32 2 -35 31 -35 30 0 30 0 27 50 -2 37 -7 50 -17 48 -21 -4 -26 -28
-6 -28 9 0 15 -5 13 -12 -8 -23 -28 -19 -39 6 -7 14 -16 26 -21 26 -4 0 -8 13
-8 29 0 21 6 32 20 36 11 3 20 13 20 21 0 8 -4 12 -10 9 -5 -3 -10 1 -10 9 0
9 6 16 14 16 17 0 26 22 26 66 0 49 -20 42 -22 -8 l-1 -43 -7 45 -7 45 -3 -45
c-2 -35 -4 -38 -7 -16 -3 15 -2 39 1 52 5 20 13 24 46 24 33 0 40 -3 40 -20 0
-11 7 -20 16 -20 13 0 15 -11 11 -67 -2 -38 -2 -51 0 -30 2 20 8 37 13 37 5 0
11 -17 13 -37 2 -21 2 -8 0 30 -3 55 -1 67 11 67 9 0 16 -12 18 -32 2 -28 8
-34 31 -36 26 -3 27 -1 27 38 0 48 20 76 40 57 10 -9 14 -9 17 1 5 13 63 17
63 5 0 -5 -4 -15 -9 -23 -12 -17 -5 -31 12 -24 8 3 13 32 14 80 2 68 1 76 -17
81 -23 6 -25 14 -8 31 9 9 8 25 -1 69 -16 73 -33 126 -44 134 -5 3 -10 28 -12
55 -2 27 -23 110 -48 184 -97 296 -276 662 -532 1088 -20 34 -145 223 -225
342 -193 286 -584 760 -874 1058 -292 301 -579 576 -825 792 -41 36 -113 99
-160 140 -47 42 -133 114 -191 160 -58 47 -111 90 -118 97 -7 7 -63 52 -125
100 -62 48 -138 108 -169 133 -31 25 -74 58 -95 73 -21 15 -72 53 -113 83 -41
30 -129 93 -195 139 -66 47 -149 105 -185 130 -380 268 -906 582 -1370 819
-52 27 -144 74 -205 106 -60 31 -180 88 -265 127 -85 40 -168 79 -185 87 -16
9 -33 16 -37 16 -3 0 -53 22 -110 49 -56 26 -130 58 -163 70 -33 13 -64 26
-70 30 -5 5 -36 18 -68 30 -32 12 -88 35 -125 53 -37 17 -101 44 -142 59 -41
14 -106 39 -145 54 -38 14 -121 44 -184 66 -63 22 -135 48 -160 58 -25 10 -66
24 -91 31 -25 7 -85 25 -133 41 -49 16 -95 29 -103 29 -7 0 -28 6 -46 14 -28
13 -83 29 -323 97 -90 25 -271 73 -345 90 -47 11 -100 25 -119 31 -48 15 -115
29 -416 87 -99 19 -242 41 -370 56 -71 8 -164 20 -206 25 -341 46 -1293 67
-1894 42 -349 -15 -466 -25 -840 -73 -348 -44 -730 -135 -1125 -266 -224 -74
-558 -200 -580 -218 -8 -7 -28 -16 -45 -19 -16 -4 -52 -19 -80 -33 -27 -14
-86 -43 -130 -65 -44 -21 -88 -43 -98 -49 -10 -5 -57 -31 -105 -56 -48 -25
-105 -59 -126 -75 -22 -15 -46 -28 -53 -28 -7 0 -13 -4 -13 -10 0 -5 -4 -10
-9 -10 -14 0 -102 -62 -146 -103 -70 -65 -75 -70 -71 -75 7 -7 -27 -41 -36
-36 -4 3 -8 -4 -8 -16 0 -12 4 -19 9 -16 5 4 22 1 38 -5 26 -10 26 -12 8 -19
-16 -6 -13 -8 18 -14 20 -4 37 -11 37 -16 0 -6 9 -10 20 -10 11 0 20 -4 20
-10 0 -5 5 -10 10 -10 5 0 19 -9 30 -20 19 -19 19 -19 -1 -34 -12 -8 -28 -12
-35 -9 -20 8 -17 -15 7 -45 15 -20 19 -35 14 -59 -4 -21 -2 -33 5 -33 6 0 25
-15 42 -32 26 -27 29 -33 15 -36 -19 -4 -22 -17 -7 -27 6 -4 8 -11 5 -16 -3
-5 0 -6 8 -3 8 3 23 -6 35 -20 14 -18 29 -26 52 -26 19 0 29 -4 25 -11 -4 -6
-13 -8 -21 -5 -21 8 -18 -30 4 -46 23 -18 42 -53 42 -78 0 -11 5 -20 11 -20 7
0 9 -10 5 -25 -6 -25 8 -36 17 -12 8 23 19 -2 19 -47 0 -45 9 -63 59 -112 12
-12 18 -27 15 -33 -4 -6 2 -16 14 -23 15 -10 20 -23 20 -55 0 -32 5 -45 19
-53 22 -11 51 -64 51 -92 0 -11 5 -16 10 -13 14 8 13 -31 -1 -54 -7 -10 -9
-29 -6 -43 7 -27 39 -68 54 -68 5 0 16 -11 23 -25 7 -13 20 -27 29 -30 9 -3
27 -15 41 -27 42 -38 64 -46 148 -60 44 -7 78 -16 76 -20 -5 -7 96 -11 226 -8
24 1 42 -1 40 -3 -3 -3 -144 -8 -314 -11 -266 -6 -572 -26 -595 -40 -3 -3 -42
-9 -86 -15 -86 -12 -336 -73 -475 -115 -257 -78 -509 -188 -785 -343 -182
-102 -288 -178 -392 -282 -170 -170 -230 -312 -203 -479 32 -199 94 -309 286
-503 85 -86 103 -110 90 -115 -24 -9 -109 52 -207 149 -134 134 -258 337 -366
597 -161 387 -206 615 -207 1060 0 294 12 404 74 650 85 339 232 679 409 944
480 722 1214 1281 2131 1626 643 241 1247 376 2070 465 507 54 782 65 1530 59
469 -3 610 -7 910 -29z m-5025 -2235 c3 -5 1 -10 -4 -10 -6 0 -11 5 -11 10 0
6 2 10 4 10 3 0 8 -4 11 -10z m2585 -179 c0 -5 -7 -14 -15 -21 -16 -14 -18
-10 -9 14 6 17 24 22 24 7z m4267 -387 c-3 -3 -12 -4 -19 -1 -8 3 -5 6 6 6 11
1 17 -2 13 -5z m262 -60 c2 -2 -7 -4 -22 -4 -14 0 -29 5 -32 10 -6 10 42 4 54
-6z m214 -51 c-7 -2 -21 -2 -30 0 -10 3 -4 5 12 5 17 0 24 -2 18 -5z m204 -49
c-3 -3 -12 -4 -19 -1 -8 3 -5 6 6 6 11 1 17 -2 13 -5z m400 -110 c-3 -3 -12
-4 -19 -1 -8 3 -5 6 6 6 11 1 17 -2 13 -5z m173 -60 c0 -2 -7 -4 -15 -4 -8 0
-15 4 -15 10 0 5 7 7 15 4 8 -4 15 -8 15 -10z m157 -50 c-3 -3 -12 -4 -19 -1
-8 3 -5 6 6 6 11 1 17 -2 13 -5z m274 -92 c-7 -2 -18 1 -23 6 -8 8 -4 9 13 5
13 -4 18 -8 10 -11z m54 -12 c8 -13 -5 -13 -25 0 -13 8 -13 10 2 10 9 0 20 -4
23 -10z m170 -60 c8 -13 -15 -13 -35 0 -12 8 -11 10 7 10 12 0 25 -4 28 -10z
m162 -56 c-3 -3 -12 -4 -19 -1 -8 3 -5 6 6 6 11 1 17 -2 13 -5z m48 -24 c3 -5
1 -10 -4 -10 -6 0 -11 5 -11 10 0 6 2 10 4 10 3 0 8 -4 11 -10z m220 -80 c-3
-5 -11 -10 -16 -10 -6 0 -7 5 -4 10 3 6 11 10 16 10 6 0 7 -4 4 -10z m115 -59
c0 -5 -9 -7 -20 -4 -11 3 -20 7 -20 9 0 2 9 4 20 4 11 0 20 -4 20 -9z m40 -21
c0 -5 -2 -10 -4 -10 -3 0 -8 5 -11 10 -3 6 -1 10 4 10 6 0 11 -4 11 -10z m115
-40 c3 -5 2 -10 -4 -10 -5 0 -13 5 -16 10 -3 6 -2 10 4 10 5 0 13 -4 16 -10z
m100 -50 c3 -5 1 -10 -4 -10 -6 0 -11 5 -11 10 0 6 2 10 4 10 3 0 8 -4 11 -10z
m125 -56 c12 -12 9 -12 -20 -4 -18 5 -38 15 -44 21 -16 16 46 0 64 -17z m214
-95 c5 -5 7 -11 4 -14 -7 -7 -78 21 -78 30 0 9 63 -5 74 -16z m106 -59 c13 -8
13 -10 -2 -10 -9 0 -20 5 -23 10 -8 13 5 13 25 0z m70 -30 c0 -5 9 -10 19 -10
20 0 37 -17 28 -27 -6 -5 -97 33 -97 41 0 3 11 6 25 6 14 0 25 -4 25 -10z
m158 -85 c10 -9 -33 -5 -48 5 -11 8 -8 9 14 6 16 -3 31 -8 34 -11z m57 -36 c5
-5 15 -9 23 -9 7 0 21 -8 30 -17 16 -15 15 -16 -13 -9 -17 4 -37 14 -46 22 -8
8 -21 14 -27 14 -6 0 -14 5 -18 11 -8 13 35 3 51 -12z m205 -119 c0 -5 -4 -10
-9 -10 -6 0 -13 5 -16 10 -3 6 1 10 9 10 9 0 16 -4 16 -10z m60 -40 c0 -5 -4
-10 -10 -10 -5 0 -10 5 -10 10 0 6 5 10 10 10 6 0 10 -4 10 -10z m47 -16 c-3
-3 -12 -4 -19 -1 -8 3 -5 6 6 6 11 1 17 -2 13 -5z m53 -34 c0 -5 -8 -10 -17
-10 -15 0 -16 2 -3 10 19 12 20 12 20 0z m224 -132 c11 -10 17 -20 14 -23 -6
-7 -68 24 -68 34 0 14 34 8 54 -11z m107 -78 c5 0 9 -4 9 -10 0 -16 -26 -12
-41 7 -12 15 -12 16 4 10 10 -4 23 -7 28 -7z m43 -25 c-7 -16 -24 -21 -24 -6
0 8 7 13 27 20 1 1 0 -6 -3 -14z m-7759 -55 c3 -5 1 -10 -4 -10 -6 0 -11 5
-11 10 0 6 2 10 4 10 3 0 8 -4 11 -10z m7935 -61 c0 -4 -7 -6 -15 -3 -8 4 -15
10 -15 15 0 4 7 6 15 3 8 -4 15 -10 15 -15z m100 -79 c8 -5 12 -11 10 -14 -3
-2 -14 2 -24 10 -22 15 -10 19 14 4z m60 -20 c0 -5 -4 -10 -10 -10 -5 0 -10 5
-10 10 0 6 5 10 10 10 6 0 10 -4 10 -10z m168 -127 c8 -13 10 -23 5 -23 -12 0
-53 35 -53 44 0 15 33 0 48 -21z m63 -47 c11 -14 28 -28 39 -31 11 -4 20 -12
20 -20 0 -7 7 -16 16 -19 9 -4 14 -9 11 -12 -8 -9 -117 78 -117 93 0 19 10 16
31 -11z m269 -226 c0 -5 -2 -10 -4 -10 -3 0 -8 5 -11 10 -3 6 -1 10 4 10 6 0
11 -4 11 -10z m54 -46 c7 -19 2 -18 -19 6 -16 17 -16 20 -3 15 9 -4 19 -13 22
-21z m151 -124 c3 -5 1 -10 -4 -10 -6 0 -11 5 -11 10 0 6 2 10 4 10 3 0 8 -4
11 -10z m165 -150 c0 -5 -2 -10 -4 -10 -3 0 -8 5 -11 10 -3 6 -1 10 4 10 6 0
11 -4 11 -10z m70 -61 c0 -6 -4 -7 -10 -4 -5 3 -10 11 -10 16 0 6 5 7 10 4 6
-3 10 -11 10 -16z m220 -215 c0 -8 -4 -12 -10 -9 -5 3 -10 10 -10 16 0 5 5 9
10 9 6 0 10 -7 10 -16z m1117 -1516 c-3 -7 -5 -2 -5 12 0 14 2 19 5 13 2 -7 2
-19 0 -25z m103 -114 c0 -8 -4 -12 -10 -9 -5 3 -10 13 -10 21 0 8 5 12 10 9 6
-3 10 -13 10 -21z m10 -99 c0 -8 -4 -15 -10 -15 -5 0 -10 7 -10 15 0 8 5 15
10 15 6 0 10 -7 10 -15z m20 -73 c0 -21 -2 -24 -10 -12 -13 20 -13 53 0 45 6
-3 10 -18 10 -33z m86 -139 c4 -13 4 -27 0 -30 -3 -4 -6 2 -6 12 0 10 -8 27
-17 37 -16 18 -16 18 0 12 10 -3 20 -17 23 -31z m-26 -19 c0 -8 7 -22 15 -30
8 -9 15 -24 15 -34 0 -11 7 -23 16 -28 10 -6 13 -12 6 -16 -6 -3 -8 -31 -6
-63 l4 -58 -20 65 c-11 36 -18 70 -16 75 2 6 -5 28 -15 50 -22 44 -23 55 -9
55 6 0 10 -7 10 -16z m727 -451 c-3 -10 -5 -2 -5 17 0 19 2 27 5 18 2 -10 2
-26 0 -35z m-202 -69 c-9 -9 -18 -14 -21 -11 -9 9 6 27 22 27 13 0 13 -2 -1
-16z m-15617 -2931 c6 -16 14 -39 17 -53 15 -60 108 -296 148 -375 88 -177
216 -332 488 -590 46 -44 118 -108 159 -142 41 -34 111 -92 155 -128 44 -37
139 -111 211 -165 73 -54 135 -104 139 -111 6 -8 -2 -10 -31 -6 -22 3 -118 11
-215 18 -562 39 -1216 -94 -1839 -373 -213 -95 -459 -221 -570 -292 -339 -217
-517 -354 -612 -473 -28 -35 -52 -62 -55 -60 -9 9 -2 609 8 687 15 126 54 242
134 400 112 224 254 443 374 580 239 272 497 503 794 711 43 29 108 76 144
102 133 96 483 295 519 296 15 1 25 -8 32 -26z m2772 -2923 c1686 -22 2491
-87 3215 -260 219 -53 480 -133 615 -191 89 -37 301 -145 355 -180 220 -142
301 -205 421 -326 156 -157 290 -341 398 -547 147 -279 238 -543 306 -884 44
-222 33 -231 -94 -77 -273 331 -702 624 -1266 865 -403 172 -1011 331 -1580
414 -58 9 -150 22 -205 31 -149 22 -481 56 -985 99 -325 29 -1194 56 -1775 56
-619 0 -1173 -24 -1385 -60 -388 -66 -619 -176 -829 -395 -271 -284 -349 -555
-239 -824 27 -65 44 -88 117 -160 l86 -83 -45 6 c-67 10 -168 63 -221 117
-158 160 -242 480 -225 853 14 315 68 533 191 778 86 171 170 283 298 397 248
219 477 318 837 361 261 31 407 31 2010 10z m95 -1560 c597 -11 1140 -32 1415
-55 364 -30 408 -34 620 -60 350 -42 515 -76 740 -152 274 -91 514 -241 738
-457 63 -61 73 -80 48 -89 -25 -10 -257 -18 -916 -33 -360 -8 -887 -20 -1170
-26 -305 -7 -1193 -12 -2175 -12 -1860 -1 -1690 -8 -1778 73 -77 71 -115 203
-101 351 9 104 36 170 96 235 115 127 232 178 463 206 208 24 1206 34 2020 19z
m10994 -3694 c9 -11 6 -12 -14 -8 -14 2 -22 8 -19 13 8 13 20 11 33 -5z m1
-132 c0 -8 -4 -12 -10 -9 -5 3 -10 10 -10 16 0 5 5 9 10 9 6 0 10 -7 10 -16z
m420 -1324 c0 -5 -4 -10 -10 -10 -5 0 -10 5 -10 10 0 6 5 10 10 10 6 0 10 -4
10 -10z m-7840 -56 c0 -9 -141 -175 -284 -334 -634 -703 -1275 -1162 -1842
-1318 -418 -116 -936 -146 -1299 -76 -316 61 -455 136 -524 284 -71 153 -58
323 43 544 19 42 39 76 44 76 6 0 20 -33 32 -72 40 -131 103 -225 195 -288 76
-52 242 -119 368 -149 296 -70 791 -48 1157 50 110 30 368 119 421 146 26 13
51 23 56 23 5 0 44 21 88 46 44 25 119 67 167 92 135 72 330 187 363 214 5 4
58 43 116 86 124 90 297 220 319 239 8 8 51 39 95 70 44 31 118 91 165 133 79
71 204 170 215 170 3 0 13 7 22 14 69 57 83 65 83 50z m8314 -332 c-1 -7 -2
-64 -2 -127 -1 -66 -6 -115 -12 -115 -5 0 -9 12 -9 28 1 15 0 53 -1 84 -2 50
-5 57 -26 62 -13 4 -24 11 -24 17 0 7 10 9 26 5 17 -5 23 -3 19 4 -10 17 4 62
18 57 7 -2 12 -9 11 -15z m-9 -314 c-4 -64 -7 -68 -14 -18 -7 48 -5 60 9 60 4
0 7 -19 5 -42z"/>
<path d="M14850 30880 c0 -5 5 -10 11 -10 5 0 7 5 4 10 -3 6 -8 10 -11 10 -2
0 -4 -4 -4 -10z"/>
<path d="M14833 30845 c0 -8 4 -15 9 -15 4 0 8 7 8 15 0 8 -4 15 -8 15 -5 0
-9 -7 -9 -15z"/>
<path d="M14930 30792 c14 -11 27 -16 29 -11 4 13 2 15 -29 24 l-25 8 25 -21z"/>
<path d="M20850 27189 c-509 -43 -717 -92 -933 -220 -84 -50 -212 -170 -273
-256 -134 -186 -193 -427 -149 -598 29 -109 118 -217 191 -231 42 -8 188 8
389 41 209 35 571 73 825 86 303 16 872 16 1035 1 151 -15 387 -60 524 -101
158 -48 210 -69 401 -167 105 -53 295 -199 404 -310 175 -179 488 -678 606
-969 52 -128 74 -136 85 -32 8 72 -17 347 -46 512 -124 698 -354 1259 -643
1563 -190 200 -424 338 -818 482 -72 27 -331 102 -388 113 -14 3 -59 12 -100
21 -106 24 -253 45 -415 61 -151 15 -537 18 -695 4z"/>
<path d="M18999 26079 c-6 -11 -45 -63 -87 -114 -43 -51 -99 -120 -127 -155
-72 -90 -241 -249 -361 -339 -91 -67 -200 -137 -351 -222 -23 -13 -93 -53
-155 -88 -62 -35 -126 -72 -142 -82 l-30 -17 35 -7 c72 -14 270 28 422 87 101
40 270 134 371 206 106 77 256 229 322 329 68 101 122 225 136 308 15 92 -4
148 -33 94z"/>
<path d="M15840 25973 c0 -26 11 -49 126 -278 137 -270 196 -415 234 -578 35
-155 23 -269 -46 -434 -46 -110 -45 -116 19 -89 54 23 224 144 257 184 31 36
32 40 26 107 -7 101 -67 256 -169 440 -74 133 -286 454 -344 524 -13 14 -23
29 -23 32 0 3 -13 21 -30 39 -16 18 -30 39 -30 46 0 7 -4 16 -10 19 -5 3 -10
-2 -10 -12z"/>
<path d="M20185 25136 c-123 -25 -216 -67 -310 -140 -145 -112 -273 -262 -349
-409 -18 -34 -38 -71 -44 -82 -20 -36 -92 -192 -92 -199 0 -31 -166 -301 -257
-417 -43 -55 -55 -89 -30 -89 7 0 48 14 92 31 252 98 679 218 976 274 594 112
1421 114 1969 5 396 -79 754 -198 1125 -372 168 -79 231 -102 241 -87 10 16
-16 46 -177 209 -278 279 -395 374 -702 564 -135 83 -429 213 -707 312 -36 12
-101 37 -145 54 -693 269 -1310 403 -1590 346z"/>
<path d="M28926 25085 c-3 -8 -1 -15 4 -15 6 0 10 7 10 15 0 8 -2 15 -4 15 -2
0 -6 -7 -10 -15z"/>
<path d="M29250 24880 c0 -22 5 -40 10 -40 6 0 10 18 10 40 0 22 -4 40 -10 40
-5 0 -10 -18 -10 -40z"/>
<path d="M29551 24844 c0 -11 3 -14 6 -6 3 7 2 16 -1 19 -3 4 -6 -2 -5 -13z"/>
<path d="M29362 24790 c0 -14 2 -19 5 -12 2 6 2 18 0 25 -3 6 -5 1 -5 -13z"/>
<path d="M29200 24749 c0 -5 5 -7 10 -4 6 3 10 8 10 11 0 2 -4 4 -10 4 -5 0
-10 -5 -10 -11z"/>
<path d="M29347 24746 c-17 -13 -16 -14 3 -19 15 -4 20 0 20 14 0 22 0 22 -23
5z"/>
<path d="M29290 24706 c0 -9 5 -16 10 -16 6 0 10 4 10 9 0 6 -4 13 -10 16 -5
3 -10 -1 -10 -9z"/>
<path d="M29530 24679 c0 -17 4 -28 10 -24 6 3 10 17 10 31 0 13 -4 24 -10 24
-5 0 -10 -14 -10 -31z"/>
<path d="M29570 24655 c0 -8 -4 -15 -10 -15 -5 0 -10 -4 -10 -8 0 -5 7 -9 15
-9 9 0 15 10 15 24 0 13 -2 23 -5 23 -3 0 -5 -7 -5 -15z"/>
<path d="M29083 24653 c-7 -3 -13 -14 -13 -24 0 -11 -4 -17 -10 -14 -5 3 -10
1 -10 -4 0 -6 7 -11 15 -11 8 0 15 -6 15 -12 0 -7 5 -5 11 5 14 23 8 65 -8 60z"/>
<path d="M29600 24509 c0 -5 5 -7 10 -4 6 3 10 8 10 11 0 2 -4 4 -10 4 -5 0
-10 -5 -10 -11z"/>
<path d="M29080 24490 c0 -5 7 -10 16 -10 8 0 12 5 9 10 -3 6 -10 10 -16 10
-5 0 -9 -4 -9 -10z"/>
<path d="M29532 24465 c0 -16 2 -22 5 -12 2 9 2 23 0 30 -3 6 -5 -1 -5 -18z"/>
<path d="M29599 24395 c0 -27 -5 -61 -9 -75 l-8 -25 -2 25 c-4 50 -19 -43 -16
-101 3 -66 12 -85 31 -69 18 15 32 250 16 276 -8 16 -11 10 -12 -31z"/>
<path d="M20535 23894 c-22 -2 -121 -8 -220 -14 -188 -12 -539 -58 -647 -85
-216 -55 -418 -139 -418 -175 0 -37 41 -38 805 -5 572 24 1228 15 1505 -21
105 -14 407 -65 459 -78 31 -8 76 -17 101 -21 115 -18 399 -106 620 -191 63
-25 162 -63 220 -85 58 -23 176 -75 263 -116 87 -42 160 -74 162 -71 11 11
-92 102 -208 184 -109 76 -328 208 -452 271 -414 211 -875 341 -1380 389 -156
14 -712 27 -810 18z"/>
<path d="M28335 21881 c-207 -54 -355 -151 -498 -326 -86 -105 -182 -305 -224
-465 -39 -153 -47 -370 -14 -403 14 -14 60 2 144 50 143 82 311 163 386 187
44 14 130 31 191 38 97 11 121 10 190 -5 120 -25 183 -60 275 -153 159 -161
232 -327 330 -754 33 -146 35 -150 44 -150 10 0 53 97 71 160 7 25 19 63 25
85 37 117 65 365 65 575 0 329 -56 525 -223 775 -88 132 -188 231 -301 295
-20 11 -51 28 -68 38 -116 66 -266 86 -393 53z"/>
<path d="M27709 20186 c-65 -14 -109 -39 -109 -64 0 -29 55 -134 106 -202 27
-36 51 -67 54 -70 24 -21 169 -256 213 -345 131 -263 175 -449 184 -775 6
-209 -4 -378 -33 -580 -11 -79 -13 -112 -4 -134 10 -28 11 -28 31 -10 45 41
117 166 204 359 15 33 38 83 51 112 43 93 124 352 150 481 68 331 11 614 -179
895 -102 151 -226 257 -352 303 -98 36 -229 48 -316 30z"/>
<path d="M27233 19933 c10 -219 54 -408 177 -753 28 -80 76 -219 107 -310 59
-174 127 -348 142 -363 20 -20 54 18 96 106 96 206 115 433 56 659 -35 137
-117 302 -208 421 -53 69 -352 377 -367 377 -5 0 -7 -56 -3 -137z"/>
<path d="M20360 11478 c-12 -22 -12 -22 6 -6 10 10 15 20 12 24 -4 3 -12 -5
-18 -18z"/>
<path d="M20946 9667 c-10 -34 -29 -99 -43 -145 -13 -46 -22 -86 -19 -89 3 -3
7 0 9 8 3 8 14 43 25 79 27 84 55 200 50 205 -2 3 -12 -23 -22 -58z"/>
<path d="M27715 13660 c-3 -5 -2 -10 4 -10 5 0 13 5 16 10 3 6 2 10 -4 10 -5
0 -13 -4 -16 -10z"/>
<path d="M28102 13254 c65 -127 120 -243 117 -246 -2 -2 7 -18 19 -36 13 -18
21 -39 18 -47 -3 -8 3 -17 15 -20 10 -4 17 -10 14 -15 -3 -5 5 -28 17 -51 32
-62 35 -27 3 45 -71 160 -191 389 -207 395 -6 2 -4 -9 4 -25z"/>
<path d="M28261 12833 c0 -5 4 -17 9 -28 8 -18 9 -17 9 8 1 15 -3 27 -9 27 -5
0 -10 -3 -9 -7z"/>
<path d="M28331 12774 c0 -11 3 -14 6 -6 3 7 2 16 -1 19 -3 4 -6 -2 -5 -13z"/>
<path d="M28351 12713 c7 -12 15 -20 18 -17 3 2 -3 12 -13 22 -17 16 -18 16
-5 -5z"/>
<path d="M28260 12700 c0 -5 5 -10 10 -10 6 0 10 5 10 10 0 6 -4 10 -10 10 -5
0 -10 -4 -10 -10z"/>
<path d="M28325 12680 c-3 -5 -1 -10 4 -10 6 0 11 5 11 10 0 6 -2 10 -4 10 -3
0 -8 -4 -11 -10z"/>
<path d="M28375 12470 c3 -5 11 -10 16 -10 6 0 7 5 4 10 -3 6 -11 10 -16 10
-6 0 -7 -4 -4 -10z"/>
<path d="M28057 12119 c7 -7 15 -10 18 -7 3 3 -2 9 -12 12 -14 6 -15 5 -6 -5z"/>
<path d="M28080 12090 c0 -5 5 -10 10 -10 6 0 10 5 10 10 0 6 -4 10 -10 10 -5
0 -10 -4 -10 -10z"/>
<path d="M28385 12010 c3 -5 8 -10 11 -10 2 0 4 5 4 10 0 6 -5 10 -11 10 -5 0
-7 -4 -4 -10z"/>
<path d="M28325 11820 c3 -5 10 -10 16 -10 5 0 9 5 9 10 0 6 -7 10 -16 10 -8
0 -12 -4 -9 -10z"/>
<path d="M34962 5139 c-30 -11 -85 -55 -59 -46 11 4 30 10 43 13 14 4 29 15
35 25 5 11 8 19 7 18 -2 0 -14 -4 -26 -10z"/>
<path d="M24908 1113 c6 -2 18 -2 25 0 6 3 1 5 -13 5 -14 0 -19 -2 -12 -5z"/>
<path d="M24418 1003 c7 -3 16 -2 19 1 4 3 -2 6 -13 5 -11 0 -14 -3 -6 -6z"/>
<path d="M22053 623 c9 -2 25 -2 35 0 9 3 1 5 -18 5 -19 0 -27 -2 -17 -5z"/>
<path d="M21533 563 c9 -2 23 -2 30 0 6 3 -1 5 -18 5 -16 0 -22 -2 -12 -5z"/>
<path d="M20683 513 c26 -2 67 -2 90 0 23 2 2 3 -48 3 -49 0 -68 -1 -42 -3z"/>
</g>
</svg>
