<svg width="83" height="38" viewBox="0 0 83 38" fill="none" xmlns="http://www.w3.org/2000/svg">
<line x1="63.1" y1="34" x2="63.1" y2="38" stroke="#C0B9EB" stroke-width="0.2"/>
<path d="M30.224 28V15.292H32.24L37.244 23.086H36.218L41.204 15.292H43.238V28H40.412V20.062L40.916 20.188L37.658 25.264H35.786L32.546 20.188L33.032 20.062V28H30.224Z" fill="#C0B9EB"/>
<path d="M61.756 34V23.836H63.898V34H61.756Z" fill="#C0B9EB"/>
<path d="M49.598 24.14C48.9727 24.14 48.4127 23.986 47.918 23.678C47.4327 23.37 47.0453 22.95 46.756 22.418C46.476 21.886 46.336 21.2793 46.336 20.598C46.336 19.9167 46.476 19.31 46.756 18.778C47.0453 18.246 47.4327 17.826 47.918 17.518C48.4127 17.21 48.9727 17.056 49.598 17.056C50.0553 17.056 50.466 17.1447 50.83 17.322C51.2033 17.4993 51.5067 17.7467 51.74 18.064C51.9733 18.372 52.104 18.7267 52.132 19.128V22.068C52.104 22.4693 51.9733 22.8287 51.74 23.146C51.516 23.454 51.2173 23.6967 50.844 23.874C50.4707 24.0513 50.0553 24.14 49.598 24.14ZM50.032 22.208C50.4893 22.208 50.858 22.0587 51.138 21.76C51.418 21.452 51.558 21.0647 51.558 20.598C51.558 20.2807 51.4927 20.0007 51.362 19.758C51.2407 19.5153 51.0633 19.3287 50.83 19.198C50.606 19.058 50.3447 18.988 50.046 18.988C49.7473 18.988 49.4813 19.058 49.248 19.198C49.024 19.3287 48.842 19.5153 48.702 19.758C48.5713 20.0007 48.506 20.2807 48.506 20.598C48.506 20.906 48.5713 21.1813 48.702 21.424C48.8327 21.6667 49.0147 21.858 49.248 21.998C49.4813 22.138 49.7427 22.208 50.032 22.208ZM51.474 24V22.166L51.796 20.514L51.474 18.862V17.196H53.574V24H51.474ZM55.4322 24V17.196H57.5742V24H55.4322ZM57.5742 20.262L56.6782 19.562C56.8555 18.7687 57.1542 18.1527 57.5742 17.714C57.9942 17.2753 58.5775 17.056 59.3242 17.056C59.6508 17.056 59.9355 17.1073 60.1782 17.21C60.4302 17.3033 60.6495 17.4527 60.8362 17.658L59.5622 19.268C59.4688 19.1653 59.3522 19.086 59.2122 19.03C59.0722 18.974 58.9135 18.946 58.7362 18.946C58.3815 18.946 58.0968 19.058 57.8822 19.282C57.6768 19.4967 57.5742 19.8233 57.5742 20.262ZM66.1108 24L63.7308 20.472L66.0968 17.196H68.4908L65.6348 20.878L65.7048 19.996L68.6308 24H66.1108ZM61.7568 24V13.836H63.8988V24H61.7568ZM72.8086 24.154C72.0712 24.154 71.4132 24.0047 70.8346 23.706C70.2652 23.398 69.8172 22.9733 69.4906 22.432C69.1639 21.8907 69.0006 21.2793 69.0006 20.598C69.0006 19.9167 69.1592 19.31 69.4766 18.778C69.8032 18.2367 70.2419 17.812 70.7926 17.504C71.3432 17.196 71.9639 17.042 72.6546 17.042C73.3266 17.042 73.9192 17.1867 74.4326 17.476C74.9459 17.7653 75.3472 18.1667 75.6366 18.68C75.9352 19.1933 76.0846 19.7813 76.0846 20.444C76.0846 20.5653 76.0752 20.696 76.0566 20.836C76.0472 20.9667 76.0239 21.1207 75.9866 21.298L70.1206 21.312V19.842L75.0766 19.828L74.1526 20.444C74.1432 20.052 74.0826 19.73 73.9706 19.478C73.8586 19.2167 73.6906 19.0207 73.4666 18.89C73.2519 18.75 72.9859 18.68 72.6686 18.68C72.3326 18.68 72.0386 18.7593 71.7866 18.918C71.5439 19.0673 71.3526 19.282 71.2126 19.562C71.0819 19.842 71.0166 20.1827 71.0166 20.584C71.0166 20.9853 71.0866 21.3307 71.2266 21.62C71.3759 21.9 71.5812 22.1193 71.8426 22.278C72.1132 22.4273 72.4306 22.502 72.7946 22.502C73.1306 22.502 73.4339 22.446 73.7046 22.334C73.9752 22.2127 74.2132 22.0353 74.4186 21.802L75.5946 22.978C75.2586 23.37 74.8526 23.664 74.3766 23.86C73.9006 24.056 73.3779 24.154 72.8086 24.154ZM78.2841 24V14.382H80.4261V24H78.2841ZM76.7441 19.016V17.196H81.9661V19.016H76.7441Z" fill="#C0B9EB"/>
<path d="M21.952 14V4.116H24.15V14H21.952ZM23.646 14V12.068H28.532V14H23.646ZM29.7017 14V7.196H31.8437V14H29.7017ZM30.7797 6.258C30.4437 6.258 30.1637 6.146 29.9397 5.922C29.725 5.68867 29.6177 5.40867 29.6177 5.082C29.6177 4.746 29.725 4.466 29.9397 4.242C30.1637 4.018 30.4437 3.906 30.7797 3.906C31.1157 3.906 31.391 4.018 31.6057 4.242C31.8203 4.466 31.9277 4.746 31.9277 5.082C31.9277 5.40867 31.8203 5.68867 31.6057 5.922C31.391 6.146 31.1157 6.258 30.7797 6.258ZM34.416 14V4.382H36.558V14H34.416ZM32.876 9.016V7.196H38.098V9.016H32.876ZM42.2791 14.154C41.5791 14.154 40.9445 14 40.3751 13.692C39.8151 13.3747 39.3718 12.9453 39.0451 12.404C38.7185 11.8627 38.5551 11.256 38.5551 10.584C38.5551 9.912 38.7185 9.31 39.0451 8.778C39.3718 8.246 39.8151 7.826 40.3751 7.518C40.9351 7.20067 41.5698 7.042 42.2791 7.042C42.9885 7.042 43.6231 7.196 44.1831 7.504C44.7431 7.812 45.1865 8.23667 45.5131 8.778C45.8398 9.31 46.0031 9.912 46.0031 10.584C46.0031 11.256 45.8398 11.8627 45.5131 12.404C45.1865 12.9453 44.7431 13.3747 44.1831 13.692C43.6231 14 42.9885 14.154 42.2791 14.154ZM42.2791 12.208C42.5871 12.208 42.8578 12.1427 43.0911 12.012C43.3245 11.872 43.5018 11.6807 43.6231 11.438C43.7538 11.186 43.8191 10.9013 43.8191 10.584C43.8191 10.2667 43.7538 9.99133 43.6231 9.758C43.4925 9.51533 43.3105 9.32867 43.0771 9.198C42.8531 9.058 42.5871 8.988 42.2791 8.988C41.9805 8.988 41.7145 9.058 41.4811 9.198C41.2478 9.32867 41.0658 9.51533 40.9351 9.758C40.8045 10.0007 40.7391 10.2807 40.7391 10.598C40.7391 10.906 40.8045 11.186 40.9351 11.438C41.0658 11.6807 41.2478 11.872 41.4811 12.012C41.7145 12.1427 41.9805 12.208 42.2791 12.208ZM49.6455 14.168C49.2442 14.168 48.8475 14.1167 48.4555 14.014C48.0729 13.9113 47.7135 13.7667 47.3775 13.58C47.0509 13.384 46.7709 13.16 46.5375 12.908L47.7555 11.676C47.9795 11.9187 48.2455 12.11 48.5535 12.25C48.8615 12.3807 49.1975 12.446 49.5615 12.446C49.8135 12.446 50.0049 12.4087 50.1355 12.334C50.2755 12.2593 50.3455 12.1567 50.3455 12.026C50.3455 11.858 50.2615 11.732 50.0935 11.648C49.9349 11.5547 49.7295 11.4753 49.4775 11.41C49.2255 11.3353 48.9595 11.256 48.6795 11.172C48.3995 11.088 48.1335 10.9713 47.8815 10.822C47.6295 10.6727 47.4242 10.4673 47.2655 10.206C47.1069 9.93533 47.0275 9.59467 47.0275 9.184C47.0275 8.74533 47.1395 8.36733 47.3635 8.05C47.5875 7.72333 47.9049 7.46667 48.3155 7.28C48.7262 7.09333 49.2069 7 49.7575 7C50.3362 7 50.8682 7.10267 51.3535 7.308C51.8482 7.504 52.2495 7.798 52.5575 8.19L51.3395 9.422C51.1249 9.17 50.8822 8.99267 50.6115 8.89C50.3502 8.78733 50.0935 8.736 49.8415 8.736C49.5989 8.736 49.4169 8.77333 49.2955 8.848C49.1742 8.91333 49.1135 9.01133 49.1135 9.142C49.1135 9.282 49.1929 9.394 49.3515 9.478C49.5102 9.562 49.7155 9.63667 49.9675 9.702C50.2195 9.76733 50.4855 9.84667 50.7655 9.94C51.0455 10.0333 51.3115 10.1593 51.5635 10.318C51.8155 10.4767 52.0209 10.6913 52.1795 10.962C52.3382 11.2233 52.4175 11.5687 52.4175 11.998C52.4175 12.6607 52.1655 13.188 51.6615 13.58C51.1669 13.972 50.4949 14.168 49.6455 14.168ZM58.1716 14V10.122C58.1716 9.76733 58.0596 9.48267 57.8356 9.268C57.621 9.044 57.3456 8.932 57.0096 8.932C56.7763 8.932 56.571 8.98333 56.3936 9.086C56.2163 9.17933 56.0763 9.31933 55.9736 9.506C55.871 9.68333 55.8196 9.88867 55.8196 10.122L54.9936 9.716C54.9936 9.184 55.1056 8.71733 55.3296 8.316C55.5536 7.91467 55.8663 7.60667 56.2676 7.392C56.669 7.168 57.131 7.056 57.6536 7.056C58.1856 7.056 58.6523 7.168 59.0536 7.392C59.455 7.60667 59.763 7.91 59.9776 8.302C60.2016 8.68467 60.3136 9.13267 60.3136 9.646V14H58.1716ZM53.6776 14V3.836H55.8196V14H53.6776ZM61.7874 14V7.196H63.9294V14H61.7874ZM62.8654 6.258C62.5294 6.258 62.2494 6.146 62.0254 5.922C61.8107 5.68867 61.7034 5.40867 61.7034 5.082C61.7034 4.746 61.8107 4.466 62.0254 4.242C62.2494 4.018 62.5294 3.906 62.8654 3.906C63.2014 3.906 63.4767 4.018 63.6914 4.242C63.906 4.466 64.0134 4.746 64.0134 5.082C64.0134 5.40867 63.906 5.68867 63.6914 5.922C63.4767 6.146 63.2014 6.258 62.8654 6.258Z" fill="#C0B9EB"/>
<circle cx="9" cy="9" r="8" fill="white"/>
<path d="M2.04004 13.0001C7.28004 14.1201 17.456 14.1201 16.4 5.96008" stroke="#151516" stroke-width="0.3"/>
<path d="M8.79993 4.92009C13.5679 9.01609 6.01326 11.4268 1.63993 12.1201C0.263932 8.66408 1.5466 5.61342 2.35993 4.52009C4.31993 2.16009 7.7466 4.12009 8.79993 4.92009Z" fill="#C0B9EB" stroke="#151516" stroke-width="0.3"/>
</svg>
