<svg width="18" height="18" viewBox="0 0 18 18" fill="none" xmlns="http://www.w3.org/2000/svg">
<path d="M10.4421 1.92495L11.9087 4.85828C12.1087 5.26662 12.6421 5.65828 13.0921 5.73328L15.7504 6.17495C17.4504 6.45828 17.8504 7.69162 16.6254 8.90828L14.5587 10.975C14.2087 11.325 14.0171 12 14.1254 12.4833L14.7171 15.0416C15.1837 17.0666 14.1087 17.85 12.3171 16.7916L9.82541 15.3166C9.37541 15.05 8.63375 15.05 8.17541 15.3166L5.68375 16.7916C3.90041 17.85 2.81708 17.0583 3.28375 15.0416L3.87541 12.4833C3.98375 12 3.79208 11.325 3.44208 10.975L1.37541 8.90828C0.158746 7.69162 0.550413 6.45828 2.25041 6.17495L4.90875 5.73328C5.35041 5.65828 5.88375 5.26662 6.08375 4.85828L7.55041 1.92495C8.35041 0.333285 9.65041 0.333285 10.4421 1.92495Z" stroke="white" stroke-linecap="round" stroke-linejoin="round"/>
</svg>
