<svg width="18" height="18" viewBox="0 0 18 18" fill="none" xmlns="http://www.w3.org/2000/svg">
<path d="M7.75033 15.5834V2.41675C7.75033 1.16675 7.21699 0.666748 5.89199 0.666748H2.52533C1.20033 0.666748 0.666992 1.16675 0.666992 2.41675V15.5834C0.666992 16.8334 1.20033 17.3334 2.52533 17.3334H5.89199C7.21699 17.3334 7.75033 16.8334 7.75033 15.5834ZM17.3337 6.10008V2.31675C17.3337 1.14175 16.8003 0.666748 15.4753 0.666748H12.1087C10.7837 0.666748 10.2503 1.14175 10.2503 2.31675V6.09175C10.2503 7.27508 10.7837 7.74175 12.1087 7.74175H15.4753C16.8003 7.75008 17.3337 7.27508 17.3337 6.10008ZM17.3337 15.4751V12.1084C17.3337 10.7834 16.8003 10.2501 15.4753 10.2501H12.1087C10.7837 10.2501 10.2503 10.7834 10.2503 12.1084V15.4751C10.2503 16.8001 10.7837 17.3334 12.1087 17.3334H15.4753C16.8003 17.3334 17.3337 16.8001 17.3337 15.4751Z" stroke="white" stroke-linecap="round" stroke-linejoin="round"/>
</svg>
